<?xml version="1.0" standalone="no"?>
<!DOCTYPE svg PUBLIC "-//W3C//DTD SVG 20010904//EN"
 "http://www.w3.org/TR/2001/REC-SVG-20010904/DTD/svg10.dtd">
<svg version="1.0" xmlns="http://www.w3.org/2000/svg"
 width="2000.000000pt" height="2000.000000pt" viewBox="0 0 2000.000000 2000.000000"
 preserveAspectRatio="xMidYMid meet">

<g transform="translate(0.000000,2000.000000) scale(0.100000,-0.100000)"
fill="#5170ff" stroke="none">
<path d="M0 10000 l0 -10000 10000 0 10000 0 0 10000 0 10000 -10000 0 -10000
0 0 -10000z m10665 5144 c477 -51 940 -194 1320 -406 202 -112 475 -309 579
-417 l39 -40 -154 -163 c-86 -90 -492 -521 -904 -958 -412 -437 -753 -796
-757 -798 -4 -2 -37 20 -72 50 -317 261 -761 374 -1233 313 -1274 -166 -2269
-1490 -2022 -2689 54 -259 166 -486 338 -684 46 -52 69 -87 64 -95 -4 -6 -412
-441 -906 -966 l-900 -953 -89 88 c-379 376 -673 908 -818 1483 -122 483 -152
1047 -84 1569 111 858 469 1724 1019 2467 248 334 606 716 911 970 903 752
1954 1185 3024 1245 183 10 463 3 645 -16z m4042 -2789 c435 -503 702 -1149
785 -1900 20 -183 17 -721 -5 -910 -129 -1088 -583 -2085 -1345 -2950 -491
-557 -1031 -975 -1682 -1299 -556 -276 -1088 -438 -1672 -507 -235 -28 -683
-31 -903 -5 -572 66 -1040 222 -1475 491 -176 109 -475 349 -475 381 0 6 401
433 890 949 490 515 897 947 906 958 16 19 17 19 80 -34 197 -167 459 -283
731 -323 202 -30 502 -16 718 34 349 82 696 258 983 500 190 159 382 379 514
587 73 116 192 363 236 488 128 367 156 754 81 1094 -59 262 -190 518 -351
683 -50 51 -54 58 -42 75 8 11 419 446 913 967 l899 947 60 -58 c32 -32 102
-107 154 -168z m-4141 -1130 c251 -44 471 -160 654 -344 179 -180 297 -399
346 -645 24 -121 29 -326 10 -441 -86 -519 -472 -923 -984 -1030 -109 -23
-382 -20 -492 4 -231 52 -412 148 -583 310 -158 150 -271 330 -335 531 -44
140 -57 228 -57 395 1 166 16 258 67 405 132 376 448 677 824 785 49 14 116
29 149 34 101 14 306 12 401 -4z"/>
<path d="M10170 10965 c-153 -35 -229 -67 -355 -150 -283 -187 -450 -523 -432
-868 23 -443 311 -805 732 -920 116 -31 364 -31 481 0 283 78 514 271 638 534
61 129 87 230 93 370 6 135 -7 247 -44 364 -100 317 -359 568 -678 655 -105
29 -338 37 -435 15z"/>
</g>
</svg>
